<?xml version="1.0" encoding="utf-8"?>
<!-- Generator: Adobe Illustrator 18.1.1, SVG Export Plug-In . SVG Version: 6.00 Build 0)  -->
<svg version="1.1" id="icons" xmlns="http://www.w3.org/2000/svg" xmlns:xlink="http://www.w3.org/1999/xlink" x="0px" y="0px"
	 viewBox="0 100 2000 1800" enable-background="new 0 100 2000 1800" xml:space="preserve">
<g>
	<g>
		<g>
			<path fill="#062938" d="M1866.7,100H133.3C60,100,0,160,0,233.3v1200c0,73.3,60,133.3,133.3,133.3h626l-53.4,266.7H566.7v66.7
				h866.7v-66.7h-141.9l-80-266.7h655.2c73.3,0,133.3-60,133.3-133.3v-1200C2000,160,1940,100,1866.7,100z M66.7,233.3
				c0-36.7,30-66.7,66.7-66.7h1733.3c36.7,0,66.7,30,66.7,66.7v1000H66.7V233.3z M1221.9,1833.3h-448l53.4-266.7h314.6
				L1221.9,1833.3z M1933.3,1433.3c0,36.7-30,66.7-66.7,66.7H133.3c-36.7,0-66.7-30-66.7-66.7V1300h1866.7V1433.3z"/>
		</g>
		<g>
			<rect x="966.7" y="1366.7" fill="#062938" width="66.7" height="66.7"/>
		</g>
		<g>
			<rect x="133.3" y="233.3" fill="#258EE6" width="1733.3" height="933.3"/>
		</g>
		<g>
			<rect x="200" y="300" fill="#70C1F9" width="1600" height="800"/>
		</g>
		<g>
			<g>
				<g>
					<g>
						<path fill="#062938" d="M700,433.3h-33.3c-73.3,0-133.3,60-133.3,133.3v400H600V800h166.7v166.7h66.7v-400
							C833.3,493.3,773.3,433.3,700,433.3z M600,733.3V566.7c0-36.7,30-66.7,66.7-66.7H700c36.7,0,66.7,30,66.7,66.7v166.7H600z"/>
					</g>
				</g>
			</g>
			<g>
				<g>
					<path fill="#062938" d="M1066.7,433.3h-33.3c-73.3,0-133.3,60-133.3,133.3v400h66.7V800h100c73.3,0,133.3-60,133.3-133.3v-100
						C1200,493.3,1140,433.3,1066.7,433.3z M1133.3,666.7c0,36.7-30,66.7-66.7,66.7h-100V566.7c0-36.7,30-66.7,66.7-66.7h33.3
						c36.7,0,66.7,30,66.7,66.7V666.7z"/>
				</g>
			</g>
			<g>
				<polygon fill="#062938" points="1400,500 1400,900 1466.7,900 1466.7,966.7 1266.7,966.7 1266.7,900 1333.3,900 1333.3,500 
					1266.7,500 1266.7,433.3 1466.7,433.3 1466.7,500 				"/>
			</g>
		</g>
	</g>
</g>
</svg>
