<?xml version="1.0" encoding="utf-8"?>
<!-- Generator: Adobe Illustrator 14.0.0, SVG Export Plug-In . SVG Version: 6.00 Build 43363)  -->
<!DOCTYPE svg PUBLIC "-//W3C//DTD SVG 1.1//EN" "http://www.w3.org/Graphics/SVG/1.1/DTD/svg11.dtd">
<svg version="1.1" id="Layer_1" xmlns="http://www.w3.org/2000/svg" xmlns:xlink="http://www.w3.org/1999/xlink" x="0px" y="0px"
	 width="252px" height="62.75px" viewBox="0 0 252 62.75" enable-background="new 0 0 252 62.75" xml:space="preserve">
<g fill="white">
	<g>
		<path d="M31.033,14.063c0,0.457-0.085,0.849-0.249,1.18l-11.21,23.845c-0.866,1.772-1.962,2.657-3.284,2.657
			c-0.864,0-1.548-0.287-2.042-0.862c-0.125-0.209-0.478-0.849-1.052-1.92L1.055,15.299c-0.164-0.327-0.246-0.74-0.246-1.236
			c0-0.867,0.32-1.629,0.962-2.291c0.643-0.658,1.424-0.993,2.336-0.993c1.414,0,2.45,0.679,3.117,2.025l8.902,17.896l8.512-17.817
			c0.66-1.398,1.696-2.104,3.101-2.104c0.912,0,1.688,0.335,2.332,0.993C30.712,12.433,31.033,13.195,31.033,14.063z"/>
		<path d="M67.057,26.327c0,4.333-1.551,8.048-4.643,11.149c-3.1,3.092-6.836,4.643-11.211,4.643c-4.336,0-8.051-1.551-11.149-4.643
			c-3.095-3.101-4.643-6.816-4.643-11.149c0-4.377,1.548-8.114,4.643-11.21c3.099-3.097,6.813-4.647,11.149-4.647
			c4.375,0,8.112,1.551,11.211,4.647C65.506,18.213,67.057,21.95,67.057,26.327z M60.549,26.296c0-2.552-0.904-4.726-2.723-6.516
			c-1.816-1.785-4.002-2.687-6.563-2.687c-2.518,0-4.687,0.902-6.503,2.687c-1.816,1.791-2.726,3.964-2.726,6.516
			c0,2.548,0.91,4.721,2.726,6.511c1.816,1.79,3.985,2.683,6.503,2.683c2.561,0,4.747-0.893,6.563-2.683
			C59.645,31.017,60.549,28.844,60.549,26.296z"/>
		<path d="M78.494,4.463c0,0.784-0.401,1.55-1.207,2.291c-0.806,0.745-1.581,1.115-2.326,1.115c-0.701,0-1.463-0.332-2.291-0.989
			c-0.823-0.658-1.237-1.403-1.237-2.23c0-0.784,0.401-1.551,1.207-2.291c0.806-0.749,1.585-1.115,2.321-1.115
			c0.706,0,1.468,0.331,2.295,0.989C78.08,2.895,78.494,3.636,78.494,4.463z M78.494,38.84c0,0.862-0.418,1.62-1.259,2.255
			c-0.84,0.641-1.606,0.963-2.299,0.963c-0.741,0-1.507-0.371-2.304-1.12c-0.802-0.74-1.198-1.507-1.198-2.291V13.257
			c0-0.863,0.41-1.621,1.229-2.256c0.819-0.645,1.572-0.962,2.273-0.962c0.732,0,1.511,0.361,2.33,1.08
			c0.819,0.728,1.229,1.498,1.229,2.326V38.84z"/>
		<path d="M114.52,26.636c0,4.46-1.55,8.266-4.647,11.429c-3.092,3.157-6.833,4.738-11.206,4.738c-3.306,0-6.358-1.115-9.168-3.345
			v18.868c0,0.905-0.331,1.703-0.989,2.387c-0.666,0.675-1.45,1.019-2.356,1.019c-0.867,0-1.633-0.296-2.291-0.897
			c-0.662-0.601-0.989-1.372-0.989-2.326V26.636c0-4.459,1.546-8.271,4.638-11.428c3.101-3.158,6.816-4.739,11.154-4.739
			c4.373,0,8.114,1.581,11.206,4.739C112.97,18.365,114.52,22.176,114.52,26.636z M108.018,26.54c0-2.609-0.91-4.83-2.726-6.676
			c-1.816-1.847-4.002-2.771-6.563-2.771c-2.521,0-4.687,0.923-6.503,2.771c-1.815,1.847-2.726,4.067-2.726,6.676
			c0,2.657,0.911,4.899,2.726,6.747c1.816,1.842,3.981,2.765,6.503,2.765c2.561,0,4.747-0.923,6.563-2.765
			C107.107,31.439,108.018,29.197,108.018,26.54z"/>
		<path d="M141.191,38.926c0,0.945-0.309,1.72-0.927,2.335c-0.619,0.614-1.363,0.94-2.23,0.979
			c-1.694,0.043-2.931,0.065-3.715,0.065c-4.212,0-7.835-1.507-10.871-4.521s-4.551-6.733-4.551-11.15V6.323
			c0-0.906,0.322-1.664,0.962-2.261c0.636-0.601,1.389-0.902,2.256-0.902c2.187,0,3.284,1.755,3.284,5.266c0,0.371,0,1.032,0,1.982
			h12.521c0.95,0,1.69,0.353,2.222,1.054c0.535,0.701,0.801,1.485,0.801,2.352c0,0.911-0.317,1.694-0.953,2.356
			c-0.641,0.658-1.407,0.989-2.313,0.989H125.4v9.168c0,2.6,0.884,4.799,2.652,6.594c1.768,1.799,3.889,2.696,6.354,2.696
			c0.287,0,0.884,0,1.79,0c0.736,0,1.315,0,1.725,0c0.906,0,1.682,0.327,2.317,0.98C140.874,37.25,141.191,38.029,141.191,38.926z"
			/>
		<path d="M152.629,4.463c0,0.784-0.4,1.55-1.206,2.291c-0.806,0.745-1.581,1.115-2.321,1.115c-0.706,0-1.473-0.332-2.296-0.989
			c-0.827-0.658-1.236-1.403-1.236-2.23c0-0.784,0.404-1.551,1.206-2.291c0.806-0.749,1.581-1.115,2.326-1.115
			c0.696,0,1.463,0.331,2.286,0.989C152.216,2.895,152.629,3.636,152.629,4.463z M152.629,38.84c0,0.862-0.418,1.62-1.259,2.255
			c-0.836,0.641-1.607,0.963-2.304,0.963c-0.736,0-1.503-0.371-2.304-1.12c-0.793-0.74-1.193-1.507-1.193-2.291V13.257
			c0-0.863,0.409-1.621,1.229-2.256c0.818-0.645,1.576-0.962,2.269-0.962c0.74,0,1.516,0.361,2.334,1.08
			c0.818,0.728,1.229,1.498,1.229,2.326V38.84z"/>
		<path d="M215.468,39.145c0.042,0.91-0.283,1.694-0.985,2.356c-0.705,0.662-1.511,0.989-2.416,0.989
			c-0.907,0-1.703-0.301-2.388-0.897c-0.68-0.596-1.019-1.354-1.019-2.26V27.193c0-2.518-0.933-4.686-2.793-6.502
			c-1.859-1.816-4.098-2.727-6.715-2.727c-1.965,0-3.75,0.549-5.37,1.642c-1.612,1.097-2.766,2.509-3.462,4.242
			c-0.366,0.911-0.554,1.547-0.554,1.921c0,1.612,0,3.78,0,6.502c0,3.219,0,5.392,0,6.503c0,0.949-0.349,1.803-1.055,2.569
			c-0.701,0.762-1.546,1.146-2.534,1.146c-0.911,0-1.707-0.301-2.387-0.893c-0.68-0.601-1.02-1.372-1.02-2.321V27.233
			c0-0.166,0-0.414,0-0.745c0-0.327,0-0.575,0-0.741c0-0.453-0.165-1.11-0.492-1.977c-0.691-1.813-1.859-3.275-3.496-4.386
			c-1.634-1.111-3.455-1.668-5.458-1.668c-2.613,0-4.843,0.897-6.685,2.688c-1.844,1.79-2.762,3.967-2.762,6.52
			c0-0.043,0,3.911,0,11.859c0,0.906-0.349,1.69-1.05,2.348c-0.706,0.658-1.512,0.989-2.417,0.989c-0.906,0-1.703-0.301-2.383-0.897
			c-0.684-0.597-1.023-1.35-1.023-2.26V26.819c0-4.333,1.581-8.036,4.743-11.115c3.162-3.075,6.994-4.612,11.502-4.612
			c5.413,0,9.773,2.085,13.079,6.254c3.224-3.92,7.461-5.884,12.709-5.884c4.508,0,8.371,1.537,11.594,4.612
			c3.223,3.079,4.835,6.807,4.835,11.18C215.468,27.215,215.468,31.174,215.468,39.145z"/>
		<path d="M251.372,29.793h-24.216c0.706,1.717,1.83,3.093,3.38,4.138c1.546,1.041,3.271,1.559,5.171,1.559c0.247,0,0.866,0,1.858,0
			c0.779,0,1.402,0,1.856,0c0.866,0.043,1.628,0.37,2.29,0.984c0.658,0.615,0.993,1.389,0.993,2.331
			c0,1.638-0.866,2.661-2.604,3.066c-0.613,0.166-2.104,0.249-4.456,0.249c-4.337,0-8.052-1.551-11.149-4.643
			c-3.097-3.101-4.643-6.816-4.643-11.149c0-4.377,1.546-8.114,4.643-11.21c3.098-3.097,6.813-4.647,11.149-4.647
			c3.219,0,6.163,0.889,8.829,2.666c2.656,1.777,4.612,4.15,5.849,7.121c0.623,1.485,0.967,3.058,1.05,4.708
			C251.372,26.575,251.372,28.182,251.372,29.793z M243.755,23.165c-0.618-1.856-1.63-3.333-3.032-4.425
			c-1.402-1.097-3.079-1.646-5.016-1.646c-1.943,0-3.707,0.562-5.297,1.677s-2.713,2.583-3.375,4.395H243.755z"/>
	</g>
</g>
</svg>
