<?xml version="1.0" encoding="utf-8"?>
<!-- Generator: Adobe Illustrator 18.1.1, SVG Export Plug-In . SVG Version: 6.00 Build 0)  -->
<svg version="1.1" id="icons" xmlns="http://www.w3.org/2000/svg" xmlns:xlink="http://www.w3.org/1999/xlink" x="0px" y="0px"
	 viewBox="0 0 2000 2000" enable-background="new 0 0 2000 2000" xml:space="preserve">
<g>
	<g>
		<g>
			<path fill="#258EE6" d="M1133.3,933.3v200H866.7v-200c0-73.3,60-133.3,133.3-133.3S1133.3,860,1133.3,933.3z"/>
			<path fill="#258EE6" d="M1333.3,933.3v200H1200v-200c0-110-90-200-200-200s-200,90-200,200v200H666.7v-200
				C666.7,750,816.7,600,1000,600S1333.3,750,1333.3,933.3z"/>
			<path fill="#258EE6" d="M1466.7,1266.7v466.7H533.3v-466.7c0-36.7,30-66.7,66.7-66.7h800C1436.7,1200,1466.7,1230,1466.7,1266.7z
				"/>
			<path fill="#258EE6" d="M1833.3,400v1333.3h-300v-466.7c0-73.3-60-133.3-133.3-133.3v-200c0-220-180-400-400-400
				s-400,180-400,400v200c-73.3,0-133.3,60-133.3,133.3v466.7h-300V400H1833.3z"/>
		</g>
		<g>
			<rect x="1900" y="266.7" fill="#062938" width="33.3" height="66.7"/>
		</g>
		<g>
			<rect x="1900" y="266.7" fill="#062938" width="33.3" height="66.7"/>
		</g>
		<g>
			<rect x="166.7" y="133.3" fill="#062938" width="66.7" height="66.7"/>
		</g>
		<g>
			<rect x="300" y="133.3" fill="#062938" width="66.7" height="66.7"/>
		</g>
		<g>
			<rect x="433.3" y="133.3" fill="#062938" width="66.7" height="66.7"/>
		</g>
		<g>
			<path fill="#062938" d="M33.3,0v1866.7H400V1800H100V333.3h1800v-66.7H633.3v-200H1900v200h33.3v66.7H1900V1800h-300v66.7h366.7
				V0H33.3z M566.7,266.7H100v-200h466.7V266.7z"/>
		</g>
		<g>
			<rect x="700" y="133.3" fill="#062938" width="1133.3" height="66.7"/>
		</g>
		<g>
			<g>
				<g>
					<path fill="#FFFFFF" d="M1333.3,933.3v200H1200v-200c0-110-90-200-200-200s-200,90-200,200v200H666.7v-200
						C666.7,750,816.7,600,1000,600S1333.3,750,1333.3,933.3z"/>
				</g>
			</g>
			<g>
				<path fill="#062938" d="M1400,1133.3v-200c0-220-180-400-400-400s-400,180-400,400v200c-73.3,0-133.3,60-133.3,133.3v600
					c0,73.3,60,133.3,133.3,133.3h800c73.3,0,133.3-60,133.3-133.3v-600C1533.3,1193.3,1473.3,1133.3,1400,1133.3z M666.7,933.3
					C666.7,750,816.7,600,1000,600s333.3,150,333.3,333.3v200H1200v-200c0-110-90-200-200-200s-200,90-200,200v200H666.7V933.3z
					 M1133.3,933.3v200H866.7v-200c0-73.3,60-133.3,133.3-133.3S1133.3,860,1133.3,933.3z M1400,1933.3H600
					c-36.7,0-66.7-30-66.7-66.7h933.3C1466.7,1903.3,1436.7,1933.3,1400,1933.3z M1466.7,1800H533.3v-533.3
					c0-36.7,30-66.7,66.7-66.7h800c36.7,0,66.7,30,66.7,66.7V1800z"/>
				<path fill="#FFFFFF" d="M1466.7,1866.7c0,36.7-30,66.7-66.7,66.7H600c-36.7,0-66.7-30-66.7-66.7H1466.7z"/>
				<path fill="#FFFFFF" d="M1466.7,1266.7V1800H533.3v-533.3c0-36.7,30-66.7,66.7-66.7h800C1436.7,1200,1466.7,1230,1466.7,1266.7z
					"/>
			</g>
			<g>
				<g>
					<polygon fill="#70C1F9" points="1000,1600 800,1600 1000,1400 1200,1400 					"/>
				</g>
				<g>
					<polygon fill="#70C1F9" points="1466.7,1400 1466.7,1600 1133.3,1600 1333.3,1400 					"/>
				</g>
				<g>
					<polygon fill="#70C1F9" points="866.7,1400 666.7,1600 533.3,1600 533.3,1400 					"/>
				</g>
			</g>
		</g>
	</g>
</g>
</svg>
