<?xml version="1.0" encoding="UTF-8" standalone="no"?>
<!-- Generator: Adobe Illustrator 18.1.1, SVG Export Plug-In . SVG Version: 6.00 Build 0)  -->

<svg
   xmlns:dc="http://purl.org/dc/elements/1.1/"
   xmlns:cc="http://creativecommons.org/ns#"
   xmlns:rdf="http://www.w3.org/1999/02/22-rdf-syntax-ns#"
   xmlns:svg="http://www.w3.org/2000/svg"
   xmlns="http://www.w3.org/2000/svg"
   xmlns:sodipodi="http://sodipodi.sourceforge.net/DTD/sodipodi-0.dtd"
   xmlns:inkscape="http://www.inkscape.org/namespaces/inkscape"
   version="1.1"
   id="icons"
   x="0px"
   y="0px"
   viewBox="0 0 56 53.700004"
   enable-background="new 0 0 56 99.7"
   xml:space="preserve"
   inkscape:version="0.91 r"
   sodipodi:docname="rocket.svg"
   width="56"
   height="53.700001"><metadata
     id="metadata95"><rdf:RDF><cc:Work
         rdf:about=""><dc:format>image/svg+xml</dc:format><dc:type
           rdf:resource="http://purl.org/dc/dcmitype/StillImage" /><dc:title></dc:title></cc:Work></rdf:RDF></metadata><defs
     id="defs93" /><sodipodi:namedview
     pagecolor="#ffffff"
     bordercolor="#666666"
     borderopacity="1"
     objecttolerance="10"
     gridtolerance="10"
     guidetolerance="10"
     inkscape:pageopacity="0"
     inkscape:pageshadow="2"
     inkscape:window-width="1916"
     inkscape:window-height="1035"
     id="namedview91"
     showgrid="false"
     inkscape:zoom="6.6951737"
     inkscape:cx="26.74653"
     inkscape:cy="10.783454"
     inkscape:window-x="1680"
     inkscape:window-y="22"
     inkscape:window-maximized="0"
     inkscape:current-layer="g4713" /><g
     id="g3"
     transform="translate(0,-45.999914)"><g
       id="g7"
       transform="translate(0,46.320979)"><rect
         style="fill:#0d385c"
         id="rect9"
         height="2"
         width="2"
         y="6.4000001"
         x="27" /><rect
         style="fill:#0d385c"
         id="rect11"
         height="2"
         width="2"
         y="40.400002"
         x="27" /><path
         style="fill:#0d385c"
         inkscape:connector-curvature="0"
         id="path13"
         d="m 30,34.4 c 0,1.1 -0.9,2 -2,2 -1.1,0 -2,-0.9 -2,-2 0,-1.1 0.9,-2 2,-2 1.1,0 2,0.9 2,2 z" /><path
         style="fill:#0d385c"
         inkscape:connector-curvature="0"
         id="path15"
         d="m 30,24.4 c 0,1.1 -0.9,2 -2,2 -1.1,0 -2,-0.9 -2,-2 0,-1.1 0.9,-2 2,-2 1.1,0 2,0.9 2,2 z" /><path
         style="fill:#0d385c"
         inkscape:connector-curvature="0"
         id="path17"
         d="m 30,14.4 c 0,1.1 -0.9,2 -2,2 -1.1,0 -2,-0.9 -2,-2 0,-1.1 0.9,-2 2,-2 1.1,0 2,0.9 2,2 z" /></g><g
       id="g19"
       transform="translate(0,46.320979)"><path
         style="fill:#70c1f9"
         inkscape:connector-curvature="0"
         id="path21"
         d="m 40.4,20.4 -2.4,0 0,-1 C 38,10.1 29.1,1.1 28.7,0.7 L 28,0 27.3,0.7 C 26.9,1.1 18,10.1 18,19.4 l 0,1 -2.4,0 L 0,36 l 0,10.4 13,0 0,7 12,0 0,-7 6,0 0,7 12,0 0,-7 13,0 L 56,36 40.4,20.4 Z m -27.3,24 -11.1,0 0,-7.6 14.4,-14.4 1.6,0 0,17.1 c -2.5,0.4 -4.5,2.4 -4.9,4.9 z m 9.9,7 -3,0 0,-2 -2,0 0,2 -3,0 0,-6 c 0,-1.9 1.3,-3.4 3,-3.9 0.3,-0.1 0.7,-0.1 1,-0.1 0.3,0 0.7,0 1,0.1 1.4,0.4 2.5,1.5 2.9,2.9 0.1,0.3 0.1,0.6 0.1,1 l 0,6 z m 8.1,-7 -6.2,0 C 24.5,41.9 22.5,39.9 20,39.5 l 0,-20.1 c 0,-7 5.9,-14.2 8,-16.5 2.1,2.3 8,9.5 8,16.5 l 0,20.1 c -2.5,0.4 -4.5,2.4 -4.9,4.9 z m 9.9,7 -3,0 0,-2 -2,0 0,2 -3,0 0,-6 c 0,-0.4 0,-0.7 0.1,-1 0.4,-1.4 1.5,-2.5 2.9,-2.9 0.3,-0.1 0.7,-0.1 1,-0.1 0.3,0 0.7,0 1,0.1 1.7,0.4 3,2 3,3.9 l 0,6 z m 13,-7 -11.1,0 C 42.5,41.9 40.5,39.9 38,39.5 l 0,-17.1 1.6,0 14.4,14.4 0,7.6 z" /><path
         style="fill:#0d385c"
         inkscape:connector-curvature="0"
         id="path23"
         d="m 28,2.9 c -2.1,2.3 -8,9.5 -8,16.5 l 0,20.1 c 2.5,0.4 4.5,2.4 4.9,4.9 l 6.2,0 c 0.4,-2.5 2.4,-4.5 4.9,-4.9 L 36,19.4 C 36,12.4 30.1,5.2 28,2.9 Z m -1,3.5 2,0 0,2 -2,0 0,-2 z m 2,36 -2,0 0,-2 2,0 0,2 z m -1,-4 c -2.2,0 -4,-1.8 -4,-4 0,-2.2 1.8,-4 4,-4 2.2,0 4,1.8 4,4 0,2.2 -1.8,4 -4,4 z m 0,-10 c -2.2,0 -4,-1.8 -4,-4 0,-2.2 1.8,-4 4,-4 2.2,0 4,1.8 4,4 0,2.2 -1.8,4 -4,4 z m 0,-10 c -2.2,0 -4,-1.8 -4,-4 0,-2.2 1.8,-4 4,-4 2.2,0 4,1.8 4,4 0,2.2 -1.8,4 -4,4 z" /><path
         style="fill:#0d385c"
         inkscape:connector-curvature="0"
         id="path25"
         d="m 18,22.4 0,17.1 c -2.5,0.4 -4.5,2.4 -4.9,4.9 l -11.1,0 0,-7.6 14.4,-14.4 1.6,0 z" /></g><g
       id="g27"
       transform="translate(0,46.320979)"><path
         style="fill:#0d385c"
         inkscape:connector-curvature="0"
         id="path29"
         d="m 30,24.4 c 0,1.1 -0.9,2 -2,2 -1.1,0 -2,-0.9 -2,-2 0,-1.1 0.9,-2 2,-2 1.1,0 2,0.9 2,2 z" /></g><g
       id="g31"
       transform="translate(0,46.320979)"><path
         style="fill:#0d385c"
         inkscape:connector-curvature="0"
         id="path33"
         d="m 30,14.4 c 0,1.1 -0.9,2 -2,2 -1.1,0 -2,-0.9 -2,-2 0,-1.1 0.9,-2 2,-2 1.1,0 2,0.9 2,2 z" /></g><g
       id="g35"
       transform="translate(0,46.320979)"><path
         style="fill:#0d385c"
         inkscape:connector-curvature="0"
         id="path37"
         d="m 30,34.4 c 0,1.1 -0.9,2 -2,2 -1.1,0 -2,-0.9 -2,-2 0,-1.1 0.9,-2 2,-2 1.1,0 2,0.9 2,2 z" /></g><g
       id="g39"
       transform="translate(0,46.320979)"><path
         style="fill:#70c1f9"
         inkscape:connector-curvature="0"
         id="path41"
         d="m 28,20.4 c -2.2,0 -4,1.8 -4,4 0,2.2 1.8,4 4,4 2.2,0 4,-1.8 4,-4 0,-2.2 -1.8,-4 -4,-4 z m 0,6 c -1.1,0 -2,-0.9 -2,-2 0,-1.1 0.9,-2 2,-2 1.1,0 2,0.9 2,2 0,1.1 -0.9,2 -2,2 z" /></g><g
       id="g43"
       transform="translate(0,46.320979)"><path
         style="fill:#70c1f9"
         inkscape:connector-curvature="0"
         id="path45"
         d="m 28,10.4 c -2.2,0 -4,1.8 -4,4 0,2.2 1.8,4 4,4 2.2,0 4,-1.8 4,-4 0,-2.2 -1.8,-4 -4,-4 z m 0,6 c -1.1,0 -2,-0.9 -2,-2 0,-1.1 0.9,-2 2,-2 1.1,0 2,0.9 2,2 0,1.1 -0.9,2 -2,2 z" /></g><g
       id="g47"
       transform="translate(0,46.320979)"><path
         style="fill:#70c1f9"
         inkscape:connector-curvature="0"
         id="path49"
         d="m 28,30.4 c -2.2,0 -4,1.8 -4,4 0,2.2 1.8,4 4,4 2.2,0 4,-1.8 4,-4 0,-2.2 -1.8,-4 -4,-4 z m 0,6 c -1.1,0 -2,-0.9 -2,-2 0,-1.1 0.9,-2 2,-2 1.1,0 2,0.9 2,2 0,1.1 -0.9,2 -2,2 z" /></g><g
       id="g51"
       transform="translate(0,46.320979)"><g
         id="g53"><path
           style="fill:#0d385c"
           inkscape:connector-curvature="0"
           id="path55"
           d="m 23,45.4 0,6 -3,0 0,-2 -2,0 0,2 -3,0 0,-6 c 0,-1.9 1.3,-3.4 3,-3.9 0.3,-0.1 0.7,-0.1 1,-0.1 0.3,0 0.7,0 1,0.1 1.4,0.4 2.5,1.5 2.9,2.9 0.1,0.3 0.1,0.7 0.1,1 z" /></g></g><g
       id="g57"
       transform="translate(0,46.320979)"><g
         id="g59"><path
           style="fill:#0d385c"
           inkscape:connector-curvature="0"
           id="path61"
           d="m 41,45.4 0,6 -3,0 0,-2 -2,0 0,2 -3,0 0,-6 c 0,-0.4 0,-0.7 0.1,-1 0.4,-1.4 1.5,-2.5 2.9,-2.9 0.3,-0.1 0.7,-0.1 1,-0.1 0.3,0 0.7,0 1,0.1 1.7,0.5 3,2.1 3,3.9 z" /></g></g><g
       id="g79"
       transform="translate(0,46.320979)"><rect
         style="fill:#70c1f9"
         id="rect81"
         height="2"
         width="2"
         y="6.4000001"
         x="27" /></g><g
       id="g83"
       transform="translate(0,46.320979)"><rect
         style="fill:#70c1f9"
         id="rect85"
         height="2"
         width="2"
         y="40.400002"
         x="27" /></g><g
       id="g87"
       transform="translate(0,46.320979)"><path
         style="fill:#0d385c"
         inkscape:connector-curvature="0"
         id="path89"
         d="m 54,36.8 0,7.6 -11.1,0 C 42.5,41.9 40.5,39.9 38,39.5 l 0,-17.1 1.6,0 14.4,14.4 z" /></g><path
       style="opacity:0;fill:none;fill-rule:evenodd;stroke:#23b0ff;stroke-width:1px;stroke-linecap:butt;stroke-linejoin:miter;stroke-opacity:1"
       d="m 63.051799,87.607148 0,-9.188453 1.68983,0 -0.05281,9.188453 z"
       id="path3569"
       inkscape:connector-curvature="0" /><g
       id="g4713"
       transform="translate(0.89616793,-1.3442519)" /></g></svg>