<?xml version="1.0" encoding="utf-8"?>
<!-- Generator: Adobe Illustrator 18.1.1, SVG Export Plug-In . SVG Version: 6.00 Build 0)  -->
<svg version="1.1" id="icons" xmlns="http://www.w3.org/2000/svg" xmlns:xlink="http://www.w3.org/1999/xlink" x="0px" y="0px"
	 viewBox="0 0 64 64" enable-background="new 0 0 64 64" xml:space="preserve">
<g>
	<g>
		<g>
			<circle fill="#258EE6" cx="32" cy="32" r="32"/>
		</g>
		<g>
			<rect x="14" y="1" fill="#FFFFFF" width="36" height="8"/>
		</g>
		<g>
			<rect x="21" y="15" fill="#FFFFFF" width="22" height="4"/>
		</g>
		<g>
			<rect x="21" y="23" fill="#FFFFFF" width="22" height="4"/>
		</g>
		<g>
			<rect x="21" y="31" fill="#FFFFFF" width="22" height="4"/>
		</g>
		<g>
			<rect x="21" y="39" fill="#FFFFFF" width="22" height="4"/>
		</g>
		<g>
			<rect x="21" y="47" fill="#FFFFFF" width="22" height="4"/>
		</g>
		<g>
			<path fill="#062938" d="M43,64H21c-0.6,0-1-0.4-1-1v-6c0-0.6,0.4-1,1-1h22c0.6,0,1,0.4,1,1v6C44,63.6,43.6,64,43,64z M22,62h20
				v-4H22V62z"/>
		</g>
		<g>
			<rect x="49" y="57" fill="#FFFFFF" width="14" height="6"/>
		</g>
		<g>
			<rect x="1" y="57" fill="#FFFFFF" width="14" height="6"/>
		</g>
		<g>
			<path fill="#062938" d="M50,10H14c-0.6,0-1-0.4-1-1V1c0-0.6,0.4-1,1-1h36c0.6,0,1,0.4,1,1v8C51,9.6,50.6,10,50,10z M15,8h34V2H15
				V8z"/>
		</g>
		<g>
			<path fill="#062938" d="M43,20H21c-0.6,0-1-0.4-1-1v-4c0-0.6,0.4-1,1-1h22c0.6,0,1,0.4,1,1v4C44,19.6,43.6,20,43,20z M22,18h20
				v-2H22V18z"/>
		</g>
		<g>
			<path fill="#062938" d="M43,28H21c-0.6,0-1-0.4-1-1v-4c0-0.6,0.4-1,1-1h22c0.6,0,1,0.4,1,1v4C44,27.6,43.6,28,43,28z M22,26h20
				v-2H22V26z"/>
		</g>
		<g>
			<path fill="#062938" d="M43,36H21c-0.6,0-1-0.4-1-1v-4c0-0.6,0.4-1,1-1h22c0.6,0,1,0.4,1,1v4C44,35.6,43.6,36,43,36z M22,34h20
				v-2H22V34z"/>
		</g>
		<g>
			<path fill="#062938" d="M43,44H21c-0.6,0-1-0.4-1-1v-4c0-0.6,0.4-1,1-1h22c0.6,0,1,0.4,1,1v4C44,43.6,43.6,44,43,44z M22,42h20
				v-2H22V42z"/>
		</g>
		<g>
			<path fill="#062938" d="M43,52H21c-0.6,0-1-0.4-1-1v-4c0-0.6,0.4-1,1-1h22c0.6,0,1,0.4,1,1v4C44,51.6,43.6,52,43,52z M22,50h20
				v-2H22V50z"/>
		</g>
		<g>
			<rect x="21" y="57" fill="#70C1F9" width="22" height="6"/>
			<path fill="#062938" d="M43,64H21c-0.6,0-1-0.4-1-1v-6c0-0.6,0.4-1,1-1h22c0.6,0,1,0.4,1,1v6C44,63.6,43.6,64,43,64z M22,62h20
				v-4H22V62z"/>
		</g>
		<g>
			<path fill="#062938" d="M63,64H49c-0.6,0-1-0.4-1-1v-6c0-0.6,0.4-1,1-1h14c0.6,0,1,0.4,1,1v6C64,63.6,63.6,64,63,64z M50,62h12
				v-4H50V62z"/>
		</g>
		<g>
			<path fill="#062938" d="M15,64H1c-0.6,0-1-0.4-1-1v-6c0-0.6,0.4-1,1-1h14c0.6,0,1,0.4,1,1v6C16,63.6,15.6,64,15,64z M2,62h12v-4
				H2V62z"/>
		</g>
		<g>
			<rect x="31" y="9" fill="#062938" width="2" height="6"/>
		</g>
		<g>
			<rect x="31" y="51" fill="#062938" width="2" height="6"/>
		</g>
		<g>
			<rect x="43" y="59" fill="#062938" width="6" height="2"/>
		</g>
		<g>
			<rect x="15" y="59" fill="#062938" width="6" height="2"/>
		</g>
		<g>
			<path fill="#062938" d="M46,26v-2c1.7,0,3-1.3,3-3s-1.3-3-3-3v-2c2.8,0,5,2.2,5,5S48.8,26,46,26z"/>
		</g>
		<g>
			<path fill="#062938" d="M46,42v-2c1.7,0,3-1.3,3-3s-1.3-3-3-3v-2c2.8,0,5,2.2,5,5S48.8,42,46,42z"/>
		</g>
		<g>
			<path fill="#062938" d="M18,34c-2.8,0-5-2.2-5-5s2.2-5,5-5v2c-1.7,0-3,1.3-3,3s1.3,3,3,3V34z"/>
		</g>
		<g>
			<path fill="#062938" d="M18,50c-2.8,0-5-2.2-5-5s2.2-5,5-5v2c-1.7,0-3,1.3-3,3s1.3,3,3,3V50z"/>
		</g>
		<g>
			<rect x="31" y="4" fill="#062938" width="2" height="2"/>
		</g>
		<g>
			<rect x="35" y="4" fill="#062938" width="2" height="2"/>
		</g>
		<g>
			<rect x="27" y="4" fill="#062938" width="2" height="2"/>
		</g>
	</g>
</g>
</svg>
