<?xml version="1.0" encoding="utf-8"?>
<!-- Generator: Adobe Illustrator 18.1.1, SVG Export Plug-In . SVG Version: 6.00 Build 0)  -->
<svg version="1.1" id="Layer_1" xmlns="http://www.w3.org/2000/svg" xmlns:xlink="http://www.w3.org/1999/xlink" x="0px" y="0px"
	 viewBox="0 0 2000 2000" enable-background="new 0 0 2000 2000" xml:space="preserve">
<g>
	<g>
		<g>
			<path fill="#062938" d="M1639.7,529.5l47.8-47.8l42,42l44.2-44.2l-125.9-125.9l-44.2,44.2l39.8,39.8l-47.8,47.8
				c-128.9-120.1-293.8-202-476.2-227.2c23.1-27.2,37-62.7,37-101.9C1156.2,68.8,1087.5,0,1000,0S843.8,68.8,843.8,156.2
				c0,39.2,13.8,74.7,37,101.9c-182.4,25.1-347.3,107-476.2,227.1l-47.8-47.8l39.8-39.8l-44.2-44.2l-126,125.9l44.2,44.2l42-42
				l47.8,47.8C214.5,686,125,895.5,125,1125c0,481.2,393.8,875,875,875s875-393.8,875-875C1875,895.6,1785.5,686,1639.7,529.5z
				 M1000,62.5c53.1,0,93.8,40.6,93.8,93.8c0,42.1-25.5,76.3-62.5,88.7v-57.5h-62.5V245c-37-12.4-62.5-46.6-62.5-88.7
				C906.2,103.1,946.9,62.5,1000,62.5z M1031.2,1936.9V1875h-62.5v61.9c-422.2-16.2-764.5-358.5-780.7-780.7H250v-62.5h-61.9
				c16.2-422.2,358.5-764.5,780.7-780.7V375h62.5v-61.9c422.2,16.2,764.5,358.5,780.7,780.7H1750v62.5h61.9
				C1795.7,1578.4,1453.4,1920.7,1031.2,1936.9z"/>
		</g>
		<g>
			<circle fill="#258EE6" cx="1000" cy="1125" r="625"/>
		</g>
		<g>
			<g>
				<path fill="#70C1F9" d="M1000,500v625h625C1625,781.2,1343.8,500,1000,500z"/>
			</g>
		</g>
		<g>
			<circle fill="#FFFFFF" cx="1000" cy="1125" r="187.5"/>
		</g>
		<g>
			<path fill="#062938" d="M1625,1093.8v62.5h-570.9c-10.8,18.7-31,31.2-54.1,31.2c-34.5,0-62.5-28-62.5-62.5s28-62.5,62.5-62.5
				c23.1,0,43.3,12.6,54.1,31.2H1625z"/>
		</g>
	</g>
</g>
</svg>
