<?xml version="1.0" encoding="utf-8"?>
<!-- Generator: Adobe Illustrator 18.1.1, SVG Export Plug-In . SVG Version: 6.00 Build 0)  -->
<svg version="1.1" id="icons" xmlns="http://www.w3.org/2000/svg" xmlns:xlink="http://www.w3.org/1999/xlink" x="0px" y="0px"
	 viewBox="0 133.3 2000 1733.3" enable-background="new 0 133.3 2000 1733.3" xml:space="preserve">
<g>
	<g>
		<g>
			<polyline fill="#258EE6" points="166.7,366.7 33.3,366.7 33.3,233.3 833.3,233.3 900,166.7 1100,166.7 1166.7,233.3 
				1966.7,233.3 1966.7,366.7 1833.3,366.7 			"/>
		</g>
		<g>
			<rect x="966.7" y="1366.7" fill="#062938" width="66.7" height="500"/>
		</g>
		<g>
			
				<rect x="1155.8" y="1568.1" transform="matrix(-0.4472 -0.8944 0.8944 -0.4472 618.9637 3585.4021)" fill="#062938" width="523.3" height="66.7"/>
		</g>
		<g>
			
				<rect x="549.3" y="1339.8" transform="matrix(-0.8944 -0.4472 0.4472 -0.8944 387.4895 3294.3618)" fill="#062938" width="66.7" height="523.3"/>
		</g>
		<g>
			<rect x="166.7" y="366.7" fill="#FFFFFF" width="1666.7" height="1000"/>
		</g>
		<g>
			<path fill="#062938" d="M1866.7,1400H133.3V333.3h1733.3V1400z M200,1333.3h1600V400H200V1333.3z"/>
		</g>
		<g>
			<polygon fill="#062938" points="2000,400 1833.3,400 1833.3,333.3 1933.3,333.3 1933.3,266.7 1153.3,266.7 1086.7,200 913.3,200 
				846.7,266.7 66.7,266.7 66.7,333.3 166.7,333.3 166.7,400 0,400 0,200 820,200 886.7,133.3 1113.3,133.3 1180,200 2000,200 			
				"/>
		</g>
		<g>
			<path fill="#70C1F9" d="M666.7,700c-130,0-233.3,103.3-233.3,233.3s103.3,233.3,233.3,233.3S900,1063.3,900,933.3H666.7V700z"/>
		</g>
		<g>
			<path fill="#FFFFFF" d="M800,566.7V800h233.3C1033.3,670,930,566.7,800,566.7z"/>
		</g>
		<g>
			<path fill="#062938" d="M666.7,1200C520,1200,400,1080,400,933.3s120-266.7,266.7-266.7H700V900h233.3v33.3
				C933.3,1080,813.3,1200,666.7,1200z M633.3,736.7c-93.3,16.7-166.7,96.7-166.7,196.7c0,110,90,200,200,200
				c100,0,180-73.3,196.7-166.7h-230V736.7z"/>
		</g>
		<g>
			<path fill="#062938" d="M1066.7,833.3h-300v-300H800c146.7,0,266.7,120,266.7,266.7V833.3z M833.3,766.7h163.3
				c-13.3-83.3-80-150-163.3-163.3V766.7z"/>
		</g>
		<g>
			<rect x="1200" y="533.3" fill="#062938" width="466.7" height="66.7"/>
		</g>
		<g>
			<rect x="1200" y="733.3" fill="#062938" width="466.7" height="66.7"/>
		</g>
		<g>
			<rect x="1200" y="933.3" fill="#062938" width="466.7" height="66.7"/>
		</g>
		<g>
			<rect x="1200" y="1133.3" fill="#062938" width="466.7" height="66.7"/>
		</g>
	</g>
</g>
</svg>
