<?xml version="1.0" encoding="utf-8"?>
<!-- Generator: Adobe Illustrator 18.1.1, SVG Export Plug-In . SVG Version: 6.00 Build 0)  -->
<svg version="1.1" id="icons" xmlns="http://www.w3.org/2000/svg" xmlns:xlink="http://www.w3.org/1999/xlink" x="0px" y="0px"
	 viewBox="1192.7 1842.1 28.4 10.7" enable-background="new 1192.7 1842.1 28.4 10.7" xml:space="preserve">
<g>
	<rect x="1218.6" y="1845.2" fill="none" width="2.3" height="4.5"/>
</g>
<g>
	<path fill="#0D385C" d="M1218.6,1852.8H1193c-0.2,0-0.3-0.1-0.3-0.3v-10.1c0-0.2,0.1-0.3,0.3-0.3h25.6c0.2,0,0.3,0.1,0.3,0.3v10.1
		C1218.9,1852.7,1218.8,1852.8,1218.6,1852.8z M1193.3,1852.2h25v-9.6h-25V1852.2z"/>
</g>
<g>
	<path fill="#0D385C" d="M1220.9,1850h-2.3c-0.2,0-0.3-0.1-0.3-0.3v-4.5c0-0.2,0.1-0.3,0.3-0.3h2.3c0.2,0,0.3,0.1,0.3,0.3v4.5
		C1221.1,1849.8,1221,1850,1220.9,1850z M1218.9,1849.4h1.7v-3.9h-1.7V1849.4z"/>
</g>
<g>
	<polygon fill="#0D385C" points="1203.8,1852.5 1193,1852.5 1193,1842.3 1206.8,1842.3 	"/>
</g>
<polygon display="none" fill="#0D385C" points="1203.6,1852.5 1193,1852.5 1193,1842.3 1203.6,1842.3 1205.5,1847.4 "/>
<g opacity="0.3">
	<g>
		<rect x="1197.9" y="1843.5" fill="#70C1F9" width="2.3" height="8"/>
	</g>
</g>
<g opacity="0.3">
	<g>
		<rect x="1194.5" y="1843.5" fill="#70C1F9" width="2.3" height="8"/>
	</g>
</g>
<g opacity="0.3">
	<g>
		<rect x="1201.2" y="1843.5" fill="#70C1F9" width="2.3" height="8"/>
	</g>
</g>
<g>
	<rect x="1204.6" y="1843.5" fill="#70C1F9" width="2.3" height="8"/>
</g>
<g>
	<rect x="1208" y="1843.5" fill="#70C1F9" width="2.3" height="8"/>
</g>
<g>
	<rect x="1211.3" y="1843.5" fill="#70C1F9" width="2.3" height="8"/>
</g>
<g>
	<rect x="1214.7" y="1843.5" fill="#70C1F9" width="2.3" height="8"/>
</g>
</svg>
