<?xml version="1.0" encoding="utf-8"?>
<!-- Generator: Adobe Illustrator 18.1.1, SVG Export Plug-In . SVG Version: 6.00 Build 0)  -->
<svg version="1.1" id="icons" xmlns="http://www.w3.org/2000/svg" xmlns:xlink="http://www.w3.org/1999/xlink" x="0px" y="0px"
	 viewBox="0 0 48 64" enable-background="new 0 0 48 64" xml:space="preserve">
<g>
	<g>
		<g>
			<rect x="1" y="5" fill="#268EE6" width="46" height="58"/>
		</g>
		<g>
			<polyline fill="#FFFFFF" points="38,9 41,9 41,57 7,57 7,9 10,9 			"/>
		</g>
		<g>
			<path fill="#062938" d="M47,64H1c-0.6,0-1-0.4-1-1V5c0-0.6,0.4-1,1-1h46c0.6,0,1,0.4,1,1v58C48,63.6,47.6,64,47,64z M2,62h44V6H2
				V62z"/>
		</g>
		<g>
			<rect x="13" y="1" fill="#FFFFFF" width="22" height="10"/>
		</g>
		<g>
			<path fill="#062938" d="M35,12H13c-0.6,0-1-0.4-1-1V1c0-0.6,0.4-1,1-1h22c0.6,0,1,0.4,1,1v10C36,11.6,35.6,12,35,12z M14,10h20V2
				H14V10z"/>
		</g>
		<g>
			<path fill="#062938" d="M41,58H7c-0.6,0-1-0.4-1-1V9c0-0.6,0.4-1,1-1h3v2H8v46h32V10h-2V8h3c0.6,0,1,0.4,1,1v48
				C42,57.6,41.6,58,41,58z"/>
		</g>
		<g>
			<rect x="16" y="4" fill="#062938" width="16" height="2"/>
		</g>
		<g>
			<g>
				<path fill="#062938" d="M14,49h-2c0-13.2,10.8-24,24-24v2C23.9,27,14,36.9,14,49z"/>
			</g>
			<g>
				<g>
					<polygon fill="#062938" points="32.8,32.6 31.2,31.4 34.6,26.3 29.4,22.8 30.6,21.2 37.4,25.7 					"/>
				</g>
			</g>
			<g>
				
					<rect x="28" y="38.3" transform="matrix(0.7071 0.7071 -0.7071 0.7071 39.6066 -7.6188)" fill="#062938" width="2" height="11.3"/>
			</g>
			<g>
				
					<rect x="23.3" y="43" transform="matrix(0.7071 0.7071 -0.7071 0.7071 39.6066 -7.6188)" fill="#062938" width="11.3" height="2"/>
			</g>
			<g>
				<circle fill="#062938" cx="16" cy="22" r="4"/>
			</g>
		</g>
	</g>
</g>
</svg>
