<?xml version="1.0" encoding="utf-8"?>
<!-- Generator: Adobe Illustrator 18.1.1, SVG Export Plug-In . SVG Version: 6.00 Build 0)  -->
<svg version="1.1" id="icons" xmlns="http://www.w3.org/2000/svg" xmlns:xlink="http://www.w3.org/1999/xlink" x="0px" y="0px"
	 viewBox="17.5 0 1964.9 2000" enable-background="new 17.5 0 1964.9 2000" xml:space="preserve">
<g>
	<g>
		<g>
			<path fill="#FFFFFF" d="M1175.4,1102.6v80.6l-175.4,44.9l-175.4-44.9v-80.6c75.1,20.3,169.8,20.3,175.4,20.3
				S1100.4,1122.8,1175.4,1102.6z"/>
		</g>
		<g>
			<polygon fill="#258EE6" points="651.1,1370.1 649.1,1368.4 650.2,1368.4 			"/>
			<path fill="#258EE6" d="M1912.3,1824.6v105.3H87.7v-105.3c0-221.1,150.9-270.2,336.8-333.3c75.8-22.1,148.7-47,218.7-82.5
				l219.9,180.7l136.8-136.8l136.8,140.3l217.6-181.9c71.3,36.1,147.6,61.3,220.9,83.6C1761.4,1554.4,1912.3,1603.5,1912.3,1824.6z"
				/>
		</g>
		<g>
			<polygon fill="#FFFFFF" points="651.1,1370.1 649.1,1368.4 649.5,1367.4 650.2,1368.4 			"/>
		</g>
		<g>
			<path fill="#70C1F9" d="M1346.4,437.4l-128.8-61.9l-14,7c-29.8,14-71.9,32.5-111,47.4c-39,14.9-75,26.3-92.5,26.3
				c-35.1,0-133.3-38.6-193-70.2l-14-7l-139,56.7c29.9-164.8,193.7-225.1,346.1-225.1C1152.9,210.5,1317.4,271.3,1346.4,437.4z"/>
		</g>
		<g>
			<path fill="#258EE6" d="M600.9,806.4c-71.1-6.7-127.2-67-127.2-139.7c0-65.1,44.9-120.2,105.3-135.9v174.5
				C584.4,741.9,591.9,775.6,600.9,806.4z"/>
		</g>
		<g>
			<path fill="#258EE6" d="M1526.3,666.7c0,72.5-55.7,132.6-126.5,139.7c8.9-30.8,16.2-64.5,21.2-101.1V530.8
				C1481.4,546.5,1526.3,601.6,1526.3,666.7z"/>
		</g>
		<g>
			<path fill="none" stroke="#4D5152" stroke-width="2" stroke-miterlimit="10" d="M1315.8,1368.4"/>
		</g>
		<g>
			<polygon fill="#062938" points="651.1,1370.1 649.1,1368.4 649.5,1367.4 650.2,1368.4 			"/>
		</g>
		<g>
			<path fill="#062938" d="M650.2,1368.4l-0.6-1l-0.4,1l2,1.7L650.2,1368.4z"/>
		</g>
		<g>
			<path fill="#062938" d="M1596.5,1431.6c-73-23.2-149.1-49.6-216.4-85l-78.3-195.7l-56.1,14.4v-97c25.5-23.5,80-80.1,123-176
				c12.6-5.8,21.9-11.1,28.6-15.4c110.7-5.9,199.3-98.2,199.3-210.2c0-42.8-13-82.8-35.2-116.1v0C1556.7,216.4,1336.7,0,1000,0
				S443.3,216.4,438.7,550.5v0.1c-22.2,33.3-35.2,73.2-35.2,116.1c0,115.8,94.7,210.5,210.5,210.5h11.5
				c44.1,107,102.3,168.6,128.8,192.3v95.8l-56.1-14.4l-76.7,191.8c-67.8,38.6-144.5,62-218,85.4c-189.5,59.6-386,122.8-386,396.5
				V2000h1964.9v-171.9C1982.5,1554.4,1786,1491.2,1596.5,1431.6z M1399.9,806.3c8.9-30.8,16.2-64.5,21.2-101.1V530.8
				c60.4,15.7,105.3,70.8,105.3,135.9C1526.3,739.2,1470.6,799.3,1399.9,806.3z M473.7,666.7c0-65.1,44.9-120.2,105.3-135.9v174.5
				c5.4,36.6,13,70.3,21.9,101.1C529.8,799.7,473.7,739.4,473.7,666.7z M580.2,458.9c-23.9,3.9-46.6,11.9-67.1,23.2
				C547.6,180.8,779.8,70.2,1000,70.2s452.4,110.6,486.9,411.9c-20.5-11.3-43.2-19.3-67.1-23.2C1403.9,263.5,1243,140.3,1000,140.3
				S596.1,263.5,580.2,458.9z M1346.4,437.4l-128.8-61.9l-14,7c-29.8,14-71.9,32.5-111,47.4c-39,14.9-75,26.3-92.5,26.3
				c-35.1,0-133.3-38.6-193-70.2l-14-7l-139,56.7c29.9-164.8,193.7-225.1,346.1-225.1C1152.9,210.5,1317.4,271.3,1346.4,437.4z
				 M649.1,698.2V514.6l140.3-54.9c45.6,17.5,157.9,66.7,210.5,66.7c56.1,0,171.9-52.6,214-70.2l136.8,62.2v179.9
				c-7.3,54.1-20.4,101-36.1,141.1v0c-49.5,17-144.8,37.9-314.8,37.9v70.2c123.4,0,211.6-11,273.9-24.9
				c-35.8,59.2-71.6,91.2-80.9,98.6c-52.6,24.6-157.9,31.6-193,31.6c-35.1,0-140.3-7-193-31.6C789.5,1007,680.7,905.3,649.1,698.2z
				 M1175.4,1102.6v80.6l-175.4,44.9l-175.4-44.9v-80.6c75.1,20.3,169.8,20.3,175.4,20.3S1100.4,1122.8,1175.4,1102.6z
				 M740.3,1235.1l259.7,63.2l259.7-63.2l49.1,122.8l-12.4,10.5l-152.5,129.8L1000,1354.4l-143.9,143.9l-152.5-129.8l-12.4-10.5
				L740.3,1235.1z M649.5,1367.4l0.6,1l1,1.7l-2-1.7L649.5,1367.4z M1912.3,1929.8H87.7v-105.3c0-221.1,150.9-270.2,336.8-333.3
				c75.8-22.1,148.7-47,218.7-82.5l219.9,180.7l136.8-136.8l136.8,140.3l217.6-181.9c71.3,36.1,147.6,61.3,220.9,83.6
				c186,59.7,336.8,108.8,336.8,329.8V1929.8z"/>
			<polygon fill="#FFFFFF" points="1308.8,1357.9 1296.4,1368.4 1143.9,1498.2 1000,1354.4 856.1,1498.2 703.6,1368.4 691.2,1357.9 
				740.3,1235.1 1000,1298.2 1259.7,1235.1 			"/>
		</g>
		<g>
			<rect x="964.9" y="1789.5" fill="#062938" width="70.2" height="70.2"/>
		</g>
		<g>
			<rect x="964.9" y="1649.1" fill="#062938" width="70.2" height="70.2"/>
		</g>
	</g>
</g>
</svg>
