<?xml version="1.0" encoding="utf-8"?>
<!-- Generator: Adobe Illustrator 18.1.1, SVG Export Plug-In . SVG Version: 6.00 Build 0)  -->
<svg version="1.1" id="Слой_1" xmlns="http://www.w3.org/2000/svg" xmlns:xlink="http://www.w3.org/1999/xlink" x="0px" y="0px"
	 viewBox="233.3 0 1533.3 2000" enable-background="new 233.3 0 1533.3 2000" xml:space="preserve">
<g>
	<rect x="400" y="166.7" fill="#258EE6" width="1333.3" height="1800"/>
</g>
<g>
	<polygon fill="#FFFFFF" points="1600,1833.3 266.7,1833.3 266.7,33.3 1333.3,33.3 1600,300 	"/>
</g>
<g>
	<g>
		<defs>
			<rect id="SVGID_1_" x="233.3" y="0" width="1533.3" height="2000"/>
		</defs>
		<clipPath id="SVGID_2_">
			<use xlink:href="#SVGID_1_"  overflow="visible"/>
		</clipPath>
		<g clip-path="url(#SVGID_2_)">
			<polygon fill="#062938" points="1766.7,2000 366.7,2000 366.7,1833.3 433.3,1833.3 433.3,1933.3 1700,1933.3 1700,200 
				1466.7,200 1466.7,133.3 1766.7,133.3 			"/>
		</g>
	</g>
</g>
<g>
	<rect x="433.3" y="200" fill="#70C1F9" width="400" height="333.3"/>
</g>
<g>
	<rect x="900" y="200" fill="#062938" width="266.7" height="66.7"/>
</g>
<g>
	<rect x="900" y="333.3" fill="#062938" width="266.7" height="66.7"/>
</g>
<g>
	<rect x="433.3" y="600" fill="#062938" width="1000" height="66.7"/>
</g>
<g>
	<rect x="433.3" y="733.3" fill="#062938" width="1000" height="66.7"/>
</g>
<g>
	<rect x="433.3" y="866.7" fill="#062938" width="1000" height="66.7"/>
</g>
<g>
	<rect x="900" y="466.7" fill="#062938" width="533.3" height="66.7"/>
</g>
<g>
	<rect x="433.3" y="1066.7" fill="#70C1F9" width="1000" height="600"/>
</g>
<g>
	<rect x="500" y="1300" fill="#062938" width="66.7" height="366.7"/>
</g>
<g>
	<rect x="633.3" y="1466.7" fill="#062938" width="66.7" height="200"/>
</g>
<g>
	<rect x="766.7" y="1166.7" fill="#062938" width="66.7" height="500"/>
</g>
<g>
	<rect x="900" y="1366.7" fill="#062938" width="66.7" height="300"/>
</g>
<g>
	<rect x="1033.3" y="1300" fill="#062938" width="66.7" height="366.7"/>
</g>
<g>
	<rect x="1166.7" y="1433.3" fill="#062938" width="66.7" height="233.3"/>
</g>
<g>
	<rect x="1300" y="1233.3" fill="#062938" width="66.7" height="433.3"/>
</g>
<g>
	<g>
		<defs>
			<rect id="SVGID_3_" x="233.3" y="0" width="1533.3" height="2000"/>
		</defs>
		<clipPath id="SVGID_4_">
			<use xlink:href="#SVGID_3_"  overflow="visible"/>
		</clipPath>
		<g clip-path="url(#SVGID_4_)">
			<polygon fill="#062938" points="1600,333.3 1300,333.3 1300,33.3 1366.7,33.3 1366.7,266.7 1600,266.7 			"/>
		</g>
	</g>
	<g>
		<defs>
			<rect id="SVGID_5_" x="233.3" y="0" width="1533.3" height="2000"/>
		</defs>
		<clipPath id="SVGID_6_">
			<use xlink:href="#SVGID_5_"  overflow="visible"/>
		</clipPath>
		<g clip-path="url(#SVGID_6_)">
			<path fill="#062938" d="M1633.3,1866.7h-1400V0h1113.3l286.7,286.7V1866.7z M300,1800h1266.7V313.3L1320,66.7H300V1800z"/>
		</g>
	</g>
</g>
<g>
	<rect x="566.7" y="333.3" fill="#062938" width="133.3" height="66.7"/>
</g>
</svg>
