<?xml version="1.0" encoding="utf-8"?>
<!-- Generator: Adobe Illustrator 18.1.1, SVG Export Plug-In . SVG Version: 6.00 Build 0)  -->
<svg version="1.1" id="icons" xmlns="http://www.w3.org/2000/svg" xmlns:xlink="http://www.w3.org/1999/xlink" x="0px" y="0px"
	 viewBox="0 0 56 99.7" enable-background="new 0 0 56 99.7" xml:space="preserve">
<g>
	<g>
		<g>
			<rect x="27" y="6.4" fill="#0D385C" width="2" height="2"/>
			<rect x="27" y="40.4" fill="#0D385C" width="2" height="2"/>
			<path fill="#0D385C" d="M30,34.4c0,1.1-0.9,2-2,2s-2-0.9-2-2c0-1.1,0.9-2,2-2S30,33.3,30,34.4z"/>
			<path fill="#0D385C" d="M30,24.4c0,1.1-0.9,2-2,2s-2-0.9-2-2c0-1.1,0.9-2,2-2S30,23.3,30,24.4z"/>
			<path fill="#0D385C" d="M30,14.4c0,1.1-0.9,2-2,2s-2-0.9-2-2c0-1.1,0.9-2,2-2S30,13.3,30,14.4z"/>
		</g>
		<g>
			<path fill="#70C1F9" d="M40.4,20.4H38v-1c0-9.3-8.9-18.3-9.3-18.7L28,0l-0.7,0.7C26.9,1.1,18,10.1,18,19.4v1h-2.4L0,36v10.4h13v7
				h12v-7h6v7h12v-7h13V36L40.4,20.4z M13.1,44.4H2v-7.6l14.4-14.4H18v17.1C15.5,39.9,13.5,41.9,13.1,44.4z M23,51.4h-3v-2h-2v2h-3
				v-6c0-1.9,1.3-3.4,3-3.9c0.3-0.1,0.7-0.1,1-0.1s0.7,0,1,0.1c1.4,0.4,2.5,1.5,2.9,2.9c0.1,0.3,0.1,0.6,0.1,1V51.4z M31.1,44.4
				h-6.2c-0.4-2.5-2.4-4.5-4.9-4.9V19.4c0-7,5.9-14.2,8-16.5c2.1,2.3,8,9.5,8,16.5v20.1C33.5,39.9,31.5,41.9,31.1,44.4z M41,51.4h-3
				v-2h-2v2h-3v-6c0-0.4,0-0.7,0.1-1c0.4-1.4,1.5-2.5,2.9-2.9c0.3-0.1,0.7-0.1,1-0.1s0.7,0,1,0.1c1.7,0.4,3,2,3,3.9V51.4z M54,44.4
				H42.9c-0.4-2.5-2.4-4.5-4.9-4.9V22.4h1.6L54,36.8V44.4z"/>
			<path fill="#0D385C" d="M28,2.9c-2.1,2.3-8,9.5-8,16.5v20.1c2.5,0.4,4.5,2.4,4.9,4.9h6.2c0.4-2.5,2.4-4.5,4.9-4.9V19.4
				C36,12.4,30.1,5.2,28,2.9z M27,6.4h2v2h-2V6.4z M29,42.4h-2v-2h2V42.4z M28,38.4c-2.2,0-4-1.8-4-4c0-2.2,1.8-4,4-4s4,1.8,4,4
				C32,36.6,30.2,38.4,28,38.4z M28,28.4c-2.2,0-4-1.8-4-4c0-2.2,1.8-4,4-4s4,1.8,4,4C32,26.6,30.2,28.4,28,28.4z M28,18.4
				c-2.2,0-4-1.8-4-4c0-2.2,1.8-4,4-4s4,1.8,4,4C32,16.6,30.2,18.4,28,18.4z"/>
			<path fill="#0D385C" d="M18,22.4v17.1c-2.5,0.4-4.5,2.4-4.9,4.9H2v-7.6l14.4-14.4H18z"/>
		</g>
		<g>
			<path fill="#0D385C" d="M30,24.4c0,1.1-0.9,2-2,2s-2-0.9-2-2c0-1.1,0.9-2,2-2S30,23.3,30,24.4z"/>
		</g>
		<g>
			<path fill="#0D385C" d="M30,14.4c0,1.1-0.9,2-2,2s-2-0.9-2-2c0-1.1,0.9-2,2-2S30,13.3,30,14.4z"/>
		</g>
		<g>
			<path fill="#0D385C" d="M30,34.4c0,1.1-0.9,2-2,2s-2-0.9-2-2c0-1.1,0.9-2,2-2S30,33.3,30,34.4z"/>
		</g>
		<g>
			<path fill="#70C1F9" d="M28,20.4c-2.2,0-4,1.8-4,4c0,2.2,1.8,4,4,4s4-1.8,4-4C32,22.2,30.2,20.4,28,20.4z M28,26.4
				c-1.1,0-2-0.9-2-2c0-1.1,0.9-2,2-2s2,0.9,2,2C30,25.5,29.1,26.4,28,26.4z"/>
		</g>
		<g>
			<path fill="#70C1F9" d="M28,10.4c-2.2,0-4,1.8-4,4c0,2.2,1.8,4,4,4s4-1.8,4-4C32,12.2,30.2,10.4,28,10.4z M28,16.4
				c-1.1,0-2-0.9-2-2c0-1.1,0.9-2,2-2s2,0.9,2,2C30,15.5,29.1,16.4,28,16.4z"/>
		</g>
		<g>
			<path fill="#70C1F9" d="M28,30.4c-2.2,0-4,1.8-4,4c0,2.2,1.8,4,4,4s4-1.8,4-4C32,32.2,30.2,30.4,28,30.4z M28,36.4
				c-1.1,0-2-0.9-2-2c0-1.1,0.9-2,2-2s2,0.9,2,2C30,35.5,29.1,36.4,28,36.4z"/>
		</g>
		<g>
			<g>
				<path fill="#0D385C" d="M23,45.4v6h-3v-2h-2v2h-3v-6c0-1.9,1.3-3.4,3-3.9c0.3-0.1,0.7-0.1,1-0.1s0.7,0,1,0.1
					c1.4,0.4,2.5,1.5,2.9,2.9C23,44.7,23,45.1,23,45.4z"/>
			</g>
		</g>
		<g>
			<g>
				<path fill="#0D385C" d="M41,45.4v6h-3v-2h-2v2h-3v-6c0-0.4,0-0.7,0.1-1c0.4-1.4,1.5-2.5,2.9-2.9c0.3-0.1,0.7-0.1,1-0.1
					s0.7,0,1,0.1C39.7,42,41,43.6,41,45.4z"/>
			</g>
		</g>
		<g>
			<rect x="16" y="55.4" fill="#70C1F9" width="2" height="44.3"/>
		</g>
		<g>
			<rect x="20" y="55.4" fill="#70C1F9" width="2" height="44.3"/>
		</g>
		<g>
			<rect x="34" y="55.4" fill="#70C1F9" width="2" height="44.3"/>
		</g>
		<g>
			<rect x="38" y="55.4" fill="#70C1F9" width="2" height="44.3"/>
		</g>
		<g>
			<rect x="27" y="6.4" fill="#70C1F9" width="2" height="2"/>
		</g>
		<g>
			<rect x="27" y="40.4" fill="#70C1F9" width="2" height="2"/>
		</g>
		<g>
			<path fill="#0D385C" d="M54,36.8v7.6H42.9c-0.4-2.5-2.4-4.5-4.9-4.9V22.4h1.6L54,36.8z"/>
		</g>
	</g>
</g>
</svg>
