<?xml version="1.0" encoding="utf-8"?>
<!-- Generator: Adobe Illustrator 18.1.1, SVG Export Plug-In . SVG Version: 6.00 Build 0)  -->
<svg version="1.1" id="Слой_1" xmlns="http://www.w3.org/2000/svg" xmlns:xlink="http://www.w3.org/1999/xlink" x="0px" y="0px"
	 viewBox="0 0 56 62" enable-background="new 0 0 56 62" xml:space="preserve">
<g>
	<rect x="1" y="3" fill="#258EE6" width="42" height="58"/>
</g>
<g>
	<rect x="6" y="3" fill="#FFFFFF" width="32" height="48"/>
</g>
<g>
	<rect x="11" y="20" fill="#062938" width="22" height="2"/>
</g>
<g>
	<rect x="11" y="24" fill="#062938" width="22" height="2"/>
</g>
<g>
	<rect x="11" y="28" fill="#062938" width="22" height="2"/>
</g>
<g>
	<rect x="11" y="32" fill="#062938" width="22" height="2"/>
</g>
<g>
	<rect x="11" y="36" fill="#062938" width="22" height="2"/>
</g>
<g>
	<rect x="11" y="40" fill="#062938" width="16" height="2"/>
</g>
<g>
	<defs>
		<rect id="SVGID_1_" width="56" height="62"/>
	</defs>
	<clipPath id="SVGID_2_">
		<use xlink:href="#SVGID_1_"  overflow="visible"/>
	</clipPath>
	<g clip-path="url(#SVGID_2_)">
		<polygon fill="#062938" points="39,52 5,52 5,3 7,3 7,50 37,50 37,3 39,3 		"/>
	</g>
</g>
<g>
	<rect x="25" y="14" fill="#062938" width="8" height="2"/>
</g>
<g>
	<defs>
		<rect id="SVGID_3_" width="56" height="62"/>
	</defs>
	<clipPath id="SVGID_4_">
		<use xlink:href="#SVGID_3_"  overflow="visible"/>
	</clipPath>
	<g clip-path="url(#SVGID_4_)">
		<path fill="#062938" d="M44,62H0V2h44V62z M2,60h40V4H2V60z"/>
	</g>
</g>
<g>
	<rect x="12" y="1" fill="#70C1F9" width="20" height="8"/>
</g>
<g>
	<defs>
		<rect id="SVGID_5_" width="56" height="62"/>
	</defs>
	<clipPath id="SVGID_6_">
		<use xlink:href="#SVGID_5_"  overflow="visible"/>
	</clipPath>
	<g clip-path="url(#SVGID_6_)">
		<path fill="#062938" d="M33,10H11V0h22V10z M13,8h18V2H13V8z"/>
	</g>
</g>
<g>
	<rect x="49" y="30" fill="#70C1F9" width="6" height="15"/>
</g>
<g>
	<rect x="49" y="9" fill="#258EE6" width="6" height="21"/>
</g>
<g>
	<rect x="49" y="3" fill="#FFFFFF" width="6" height="6"/>
</g>
<g>
	<rect x="48" y="9" fill="#062938" width="2" height="36"/>
</g>
<g>
	<defs>
		<rect id="SVGID_7_" width="56" height="62"/>
	</defs>
	<clipPath id="SVGID_8_">
		<use xlink:href="#SVGID_7_"  overflow="visible"/>
	</clipPath>
	<g clip-path="url(#SVGID_8_)">
		<rect x="54" y="9" fill="#062938" width="2" height="36"/>
	</g>
	<g clip-path="url(#SVGID_8_)">
		<path fill="#062938" d="M56,10h-8V2h8V10z M50,8h4V4h-4V8z"/>
	</g>
</g>
<g>
	<polygon fill="#70C1F9" points="55,45 55,50 52,53 49,50 49,45 	"/>
</g>
<g>
	<defs>
		<rect id="SVGID_9_" width="56" height="62"/>
	</defs>
	<clipPath id="SVGID_10_">
		<use xlink:href="#SVGID_9_"  overflow="visible"/>
	</clipPath>
	<g clip-path="url(#SVGID_10_)">
		<path fill="#062938" d="M52,54.4l-4-4V44h8v6.4L52,54.4z M50,49.6l2,2l2-2V46h-4V49.6z"/>
	</g>
	<g clip-path="url(#SVGID_10_)">
		<rect x="51" fill="#062938" width="2" height="3"/>
	</g>
	<g clip-path="url(#SVGID_10_)">
		<rect x="51" y="53" fill="#062938" width="2" height="2"/>
	</g>
	<g clip-path="url(#SVGID_10_)">
		<rect x="51" y="38" fill="#062938" width="2" height="2"/>
	</g>
	<g clip-path="url(#SVGID_10_)">
		<rect x="51" y="34" fill="#062938" width="2" height="2"/>
	</g>
</g>
<g>
	<rect x="17" y="55" fill="#062938" width="2" height="2"/>
</g>
<g>
	<rect x="21" y="55" fill="#062938" width="2" height="2"/>
</g>
<g>
	<rect x="25" y="55" fill="#062938" width="2" height="2"/>
</g>
<g>
	<rect x="15" y="4" fill="#062938" width="14" height="2"/>
</g>
</svg>
